<svg width="18" height="18" viewBox="0 0 18 18" fill="none" xmlns="http://www.w3.org/2000/svg">
<g clip-path="url(#clip0_36_1595)">
<path d="M0 2.76776V8.4813H7.85612V0.625183H2.14258C1.57433 0.625183 1.02936 0.850918 0.627547 1.25273C0.225735 1.65454 0 2.19951 0 2.76776Z" fill="#000"/>
<path d="M14.998 0.625183H9.28442V8.4813H17.1405V2.76776C17.1405 2.19951 16.9148 1.65454 16.513 1.25273C16.1112 0.850918 15.5662 0.625183 14.998 0.625183Z" fill="#000"/>
<path d="M0 15.6231C0 16.1913 0.225735 16.7363 0.627547 17.1381C1.02936 17.5399 1.57433 17.7657 2.14258 17.7657H7.85612V9.90955H0V15.6231Z" fill="#000"/>
<path d="M9.28442 17.7657H14.998C15.5662 17.7657 16.1112 17.5399 16.513 17.1381C16.9148 16.7363 17.1405 16.1913 17.1405 15.6231V9.90955H9.28442V17.7657Z" fill="#000"/>
</g>
<defs>
<clipPath id="clip0_36_1595">
<rect width="17.1406" height="17.1406" fill="white" transform="translate(0 0.625183)"/>
</clipPath>
</defs>
</svg>
