<svg fill="#ffffff" version="1.1" id="Capa_1" xmlns="http://www.w3.org/2000/svg" xmlns:xlink="http://www.w3.org/1999/xlink" width="64px" height="64px" viewBox="0 0 232.046 232.046" xml:space="preserve" stroke="#ffffff"><g id="SVGRepo_bgCarrier" stroke-width="0"></g><g id="SVGRepo_tracerCarrier" stroke-linecap="round" stroke-linejoin="round"></g><g id="SVGRepo_iconCarrier"> <g> <g> <path d="M54.06,87.145c6.567,0,11.898-7.62,11.898-14.193c0-6.57-5.331-11.901-11.898-11.901c-6.573,0-11.898,5.325-11.898,11.901 C42.162,79.53,47.487,87.145,54.06,87.145z"></path> <path d="M48.403,179.331l3.379-42.088c0.7,0.311,1.473,0.487,2.277,0.487c0.81,0,1.577-0.177,2.283-0.487l3.386,42.088 c0.234,2.966,2.709,5.194,5.617,5.194c0.161,0,0.311-0.006,0.459-0.019c3.118-0.243,5.432-2.965,5.176-6.082l-3.742-46.57v-32.12 c0.463,0.137,0.904,0.262,1.303,0.38l3.431,30.863c0.262,2.411,2.308,4.184,4.665,4.184c0.18,0,0.356-0.006,0.523-0.024 c2.588-0.286,4.445-2.618,4.159-5.2l-3.76-33.89c-0.024-0.225-0.143-0.404-0.207-0.624c-0.085-0.341-0.162-0.679-0.323-0.995 c-0.131-0.25-0.308-0.427-0.463-0.637c-0.21-0.28-0.405-0.554-0.673-0.785c-0.213-0.183-0.469-0.286-0.697-0.417 c-0.243-0.146-0.438-0.338-0.718-0.438c-0.423-0.155-9.895-3.547-18.6-3.995l-1.19,2.393h-0.03l3.167,24.683l-3.766,6.576 l-3.766-6.576l3.166-24.683h-0.036l-1.197-2.393c-8.698,0.448-18.17,3.839-18.587,3.995c-0.28,0.101-0.487,0.292-0.725,0.444 c-0.237,0.131-0.493,0.237-0.691,0.411c-0.28,0.243-0.481,0.523-0.7,0.815c-0.143,0.195-0.311,0.375-0.429,0.6 c-0.167,0.323-0.237,0.673-0.335,1.029c-0.058,0.204-0.177,0.378-0.201,0.603l-3.766,33.889c-0.28,2.582,1.571,4.914,4.159,5.2 c0.173,0.019,0.35,0.024,0.523,0.024c2.363,0,4.403-1.778,4.67-4.184l3.422-30.862c0.408-0.119,0.849-0.244,1.309-0.381v32.126 l-3.745,46.57c-0.255,3.105,2.064,5.834,5.173,6.077c0.158,0.006,0.308,0.019,0.463,0.019 C45.693,184.525,48.163,182.297,48.403,179.331z"></path> <path d="M116.026,56.617c6.573,0,11.901-7.615,11.901-14.185c0-6.573-5.328-11.904-11.901-11.904s-11.904,5.331-11.904,11.904 C104.122,48.996,109.453,56.617,116.026,56.617z"></path> <path d="M110.357,148.807l3.392-42.091c0.7,0.308,1.467,0.487,2.277,0.487c0.807,0,1.574-0.18,2.28-0.487l3.386,42.091 c0.237,2.953,2.716,5.2,5.62,5.2c0.152,0,0.305-0.012,0.457-0.024c3.117-0.256,5.431-2.978,5.188-6.077l-3.751-46.576V69.212 c0.463,0.131,0.901,0.262,1.303,0.386l3.435,30.857c0.269,2.408,2.302,4.189,4.677,4.189c0.17,0,0.347-0.006,0.512-0.024 c2.594-0.293,4.444-2.619,4.165-5.2l-3.77-33.883c-0.024-0.229-0.14-0.411-0.201-0.625c-0.085-0.347-0.158-0.691-0.322-1.008 c-0.128-0.237-0.305-0.417-0.463-0.63c-0.213-0.28-0.408-0.554-0.676-0.785c-0.207-0.177-0.457-0.28-0.7-0.424 c-0.238-0.143-0.445-0.332-0.719-0.432c-0.42-0.162-9.889-3.547-18.59-4.003l-1.206,2.39h-0.024l3.166,24.68l-3.766,6.579 L112.26,84.7l3.173-24.68h-0.037l-1.196-2.396c-8.698,0.45-18.164,3.842-18.587,4.003c-0.28,0.101-0.487,0.29-0.725,0.438 c-0.237,0.131-0.484,0.241-0.691,0.411c-0.28,0.237-0.481,0.524-0.691,0.81c-0.152,0.207-0.32,0.38-0.438,0.606 c-0.167,0.316-0.244,0.667-0.335,1.02c-0.058,0.213-0.17,0.39-0.195,0.618l-3.766,33.883c-0.286,2.588,1.577,4.914,4.159,5.2 c0.183,0.018,0.35,0.024,0.53,0.024c2.362,0,4.408-1.781,4.67-4.189l3.425-30.86c0.405-0.122,0.847-0.253,1.309-0.384v32.117 l-3.742,46.576c-0.255,3.105,2.064,5.827,5.176,6.07c0.149,0.013,0.298,0.025,0.454,0.025 C107.653,154.007,110.129,151.76,110.357,148.807z"></path> <path d="M177.986,26.089c6.57,0,11.898-7.614,11.898-14.188c0-6.57-5.328-11.901-11.898-11.901c-6.582,0-11.91,5.325-11.91,11.901 C166.076,18.48,171.404,26.089,177.986,26.089z"></path> <path d="M172.317,118.275l3.392-42.094c0.7,0.313,1.468,0.493,2.277,0.493c0.804,0,1.577-0.174,2.271-0.493l3.392,42.094 c0.237,2.96,2.703,5.194,5.608,5.194c0.158,0,0.304-0.006,0.462-0.012c3.112-0.256,5.432-2.979,5.176-6.084l-3.75-46.572V38.685 c0.475,0.131,0.913,0.262,1.314,0.38l3.423,30.863c0.268,2.402,2.313,4.184,4.676,4.184c0.183,0,0.348-0.006,0.524-0.024 c2.588-0.292,4.438-2.619,4.158-5.194l-3.769-33.883c-0.024-0.231-0.146-0.411-0.207-0.627c-0.086-0.344-0.152-0.688-0.317-0.999 c-0.134-0.244-0.304-0.426-0.475-0.63c-0.201-0.28-0.396-0.554-0.664-0.786c-0.207-0.18-0.463-0.286-0.7-0.423 c-0.243-0.146-0.438-0.338-0.718-0.433c-0.427-0.161-9.89-3.553-18.597-4l-1.206,2.393h-0.024l3.167,24.68l-3.764,6.579 l-3.763-6.579l3.166-24.68h-0.036l-1.193-2.393c-8.708,0.448-18.177,3.839-18.597,4c-0.28,0.101-0.475,0.286-0.719,0.438 c-0.243,0.137-0.486,0.244-0.682,0.411c-0.286,0.244-0.487,0.53-0.7,0.81c-0.152,0.201-0.316,0.381-0.444,0.612 c-0.165,0.311-0.244,0.661-0.329,1.017c-0.055,0.21-0.17,0.393-0.207,0.609l-3.757,33.883c-0.286,2.576,1.571,4.908,4.159,5.194 c0.17,0.018,0.341,0.024,0.523,0.024c2.356,0,4.402-1.781,4.67-4.184l3.429-30.863c0.401-0.113,0.84-0.244,1.303-0.38v32.117 l-3.738,46.572c-0.256,3.118,2.058,5.828,5.176,6.084c0.158,0.006,0.298,0.012,0.463,0.012 C169.614,123.47,172.086,121.235,172.317,118.275z"></path> <path d="M189.27,123.47h-22.566h-19.704v30.525h-19.687h-22.579H85.042v30.524H65.346H42.78H23.084v47.526h61.957h61.958h61.963 V123.47H189.27z M55.923,221.499v4.226h-4.059v-3.934c-2.773-0.128-5.474-0.876-7.045-1.79l1.246-4.841 c1.735,0.944,4.186,1.821,6.877,1.821c2.366,0,3.979-0.914,3.979-2.57c0-1.577-1.321-2.569-4.391-3.604 c-4.433-1.498-7.456-3.568-7.456-7.587c0-3.647,2.563-6.504,7.003-7.381v-3.934h4.064v3.642c2.768,0.128,4.646,0.706,6.004,1.37 l-1.203,4.683c-1.078-0.456-2.987-1.413-5.967-1.413c-2.701,0-3.56,1.164-3.56,2.326c0,1.364,1.446,2.235,4.975,3.562 c4.932,1.741,6.92,4.025,6.92,7.752C63.306,217.511,60.694,220.671,55.923,221.499z M117.893,207.104v4.226h-4.062v-3.939 c-2.773-0.128-5.474-0.871-7.045-1.784l1.239-4.848c1.742,0.95,4.186,1.827,6.877,1.827c2.369,0,3.977-0.913,3.977-2.569 c0-1.583-1.315-2.576-4.388-3.611c-4.433-1.491-7.456-3.562-7.456-7.58c0-3.654,2.563-6.516,7.002-7.381v-3.934h4.062v3.647 c2.776,0.128,4.652,0.706,6.016,1.37l-1.199,4.677c-1.084-0.45-2.989-1.413-5.974-1.413c-2.7,0-3.564,1.17-3.564,2.32 c0,1.37,1.452,2.234,4.978,3.562c4.92,1.753,6.917,4.03,6.917,7.757C125.272,203.122,122.654,206.276,117.893,207.104z M179.855,192.71v4.237h-4.055v-3.939c-2.783-0.128-5.48-0.87-7.052-1.784l1.248-4.847c1.742,0.943,4.184,1.814,6.875,1.814 c2.369,0,3.982-0.913,3.982-2.569c0-1.584-1.321-2.57-4.391-3.605c-4.438-1.498-7.459-3.562-7.459-7.587 c0-3.642,2.558-6.503,7.003-7.38v-3.945h4.062v3.659c2.771,0.116,4.646,0.7,6.01,1.364l-1.193,4.682 c-1.084-0.462-2.99-1.412-5.968-1.412c-2.703,0-3.568,1.157-3.568,2.314c0,1.369,1.449,2.24,4.981,3.567 c4.932,1.741,6.917,4.019,6.917,7.752C187.235,188.739,184.617,191.894,179.855,192.71z"></path> </g> </g> </g></svg>