<?xml version="1.0" encoding="iso-8859-1"?>
<!-- Uploaded to: SVG Repo, www.svgrepo.com, Generator: SVG Repo Mixer Tools -->
<svg fill="#000000" height="800px" width="800px" version="1.1" id="Capa_1" xmlns="http://www.w3.org/2000/svg" xmlns:xlink="http://www.w3.org/1999/xlink" 
	 viewBox="0 0 490 490" xml:space="preserve">
<g id="line_29_">
	<path d="M396.242,176.354l56.381-67.344l-68.554-67.007l-65.92,52.721c-5.39-2.771-10.887-5.252-16.476-7.426L293.28,5.176h-96.576
		l-7.886,77.099c-7.595,2.22-15.052,4.931-22.341,8.161l-60.546-48.433l-68.554,66.992l47.408,56.626
		c-4.303,7.947-7.963,16.155-10.903,24.561L0,197.424v95.137l73.975,7.227c2.955,8.453,6.584,16.645,10.841,24.531L37.362,380.99
		l68.569,67.008l60.546-48.433c7.289,3.231,14.746,5.972,22.356,8.161l7.886,77.099h96.576l8.391-82.121
		c5.574-2.19,11.071-4.67,16.446-7.442l65.951,52.736l68.554-67.008l-56.473-67.467c1.837-4.043,3.507-8.131,4.992-12.265
		L490,292.545v-95.136l-88.782-8.667C399.717,184.531,398.048,180.381,396.242,176.354z M459.375,264.768l-81.508,7.978
		l-2.879,9.984c-2.527,8.728-6.064,17.426-10.504,25.817l-4.808,9.096l51.266,61.25l-28.895,28.252l-61.066-48.832l-9.126,5.421
		c-9.31,5.543-19.11,9.984-29.124,13.23l-9.509,3.063l-7.58,74.174h-41.237l-7.304-71.218l-10.795-2.389
		c-12.036-2.664-23.78-6.891-34.867-12.602l-8.82-4.533l-54.62,43.702l-28.91-28.251l43.304-51.741l-5.957-9.432
		c-7.105-11.27-12.526-23.489-16.139-36.321l-2.833-10.076l-66.839-6.569v-39.567l66.762-6.538l2.818-10.122
		c3.507-12.633,8.958-24.852,16.185-36.321l5.957-9.432l-43.288-51.695l28.91-28.267l54.635,43.702l8.82-4.533
		c11.117-5.712,22.846-9.953,34.851-12.602l10.795-2.389l7.304-71.218h41.236l7.58,74.174l9.509,3.063
		c10.06,3.261,19.876,7.702,29.17,13.215l9.111,5.421l61.036-48.816l28.895,28.252l-51.144,61.112l4.808,9.096
		c4.257,8.054,7.779,16.798,10.428,25.97l2.879,9.968l81.462,7.963v39.567H459.375z"/>
	<path d="M254.417,191.207c11.913,0,20.978,3.108,27.195,9.325l6.477-30.38c-9.08-4.456-19.753-6.692-32.034-6.692
		c-22.54,0-40.701,7.381-54.528,22.142c-9.141,9.815-15.251,21.989-18.314,36.536h-13.062l-3.507,16.997h14.363
		c-0.153,2.557-0.214,5.512-0.214,8.881c0,1.975,0.031,3.843,0.107,5.589h-10.749l-3.507,16.997h16.247
		c2.986,14.853,9.188,27.241,18.543,37.194c13.735,14.623,31.299,21.943,52.644,21.943c12.648,0,23.734-2.373,33.228-7.12v-33.565
		c-8.33,8.621-19.508,12.939-33.55,12.939c-11.714,0-21.223-4.303-28.527-12.939c-3.798-4.456-6.615-10.596-8.437-18.436h50.026
		l3.507-16.997h-55.829c-0.153-2.772-0.23-5.436-0.23-7.993c0-2.634,0.031-4.778,0.107-6.477h59.014l3.507-16.997h-60.331
		c1.746-7.243,4.716-13.261,8.881-18.099C232.842,195.51,242.504,191.207,254.417,191.207z"/>
</g>
</svg>